:SAMPLES-PER-SECOND 30
:FULLY-SPECIFIED
:DEGREES
230
root  -9.9513 23.3464 -1.65294 -159.493 -50.2998 1.20697
RightUpLeg  -47.0718 -48.3403 -160.499
RightLeg  102.844 -7.83369 157.046
RightFoot  51.3937 5.65999 -8.02591
RightToes  -1.16417e-010 0 -3.6325e-017
Spine  168.731 34.4346 -3.25059
Spine1  54.8935 10.5272 -23.048
HEad  -7.4452 -39.8536 -24.5121
LeftShoulder1  1.10295 -4.53082 -5.98821
LeftArm  -35.9319 -47.6097 -19.0992
LeftForeArm  25.0371 -4.71935 3.59845
LeftHand  -0.0519056 10.5496 0.0718153
RightShoulder  -0.353007 -4.78958 20.4119
RightArm  -6.69186 21.7847 55.6616
RightForeArm  141.99 76.4804 134.504
RightHand  -0.0866606 1.45594 -1.61414
LeftUpLeg  104.634 30.429 -19.4035
LeftLeg  81.1929 -0.126494 1.21807
LeftFoot  -32.1766 -0.36543 -3.0434
LeftToes  1.47335e-010 -1.29615e-010 3.08757e-011
231
root  -10.0837 23.2146 -1.43128 -161.085 -51.4644 0.930634
RightUpLeg  -47.2897 -60.0701 -163.452
RightLeg  98.4864 -4.83635 177.424
RightFoot  54.0114 -2.58723 4.83867
RightToes  -1.16417e-010 0 -3.6325e-017
Spine  170.893 34.2021 -2.27037
Spine1  55.7437 10.2315 -22.705
HEad  -3.04629 -37.8428 -26.9131
LeftShoulder1  1.06476 -4.20492 -6.0839
LeftArm  -34.6193 -46.393 -20.5957
LeftForeArm  23.9562 -4.85473 3.36743
LeftHand  0.000446696 10.568 1.22497
RightShoulder  -0.362406 -4.8549 19.7755
RightArm  -8.42112 21.0832 55.3031
RightForeArm  147.977 74.2278 142.239
RightHand  -0.129755 1.3623 -2.36544
LeftUpLeg  107.027 30.4759 -17.7241
LeftLeg  82.01 -0.00996272 2.36353
LeftFoot  -32.361 -0.313638 -2.74231
LeftToes  1.47335e-010 -1.29615e-010 3.08757e-011
232
root  -10.1936 23.1354 -1.17687 -163.863 -52.1858 2.78134
RightUpLeg  -49.6143 -67.1138 -161.003
RightLeg  98.2586 -4.32955 -173.353
RightFoot  54.6283 -5.53332 10.2838
RightToes  -1.16417e-010 0 -3.6325e-017
Spine  172.78 33.9872 -0.46716
Spine1  57.2863 9.3367 -21.9651
HEad  0.848873 -35.9665 -28.3489
LeftShoulder1  1.01452 -3.84679 -6.04605
LeftArm  -35.5022 -44.0204 -23.9782
LeftForeArm  17.5221 -8.05956 4.5297
LeftHand  -0.00833569 8.56668 1.3292
RightShoulder  -0.365837 -4.90061 19.2003
RightArm  -9.90146 20.409 55.0247
RightForeArm  154.914 71.6979 148.638
RightHand  -0.113404 1.17397 -2.12608
LeftUpLeg  108.993 30.8944 -15.2584
LeftLeg  82.2724 0.0145487 3.10362
LeftFoot  -32.3473 -0.300522 -2.66991
LeftToes  1.47335e-010 -1.29615e-010 3.08757e-011
233
root  -9.88334 22.3124 -0.889866 -158.392 -51.4168 -1.48639
RightUpLeg  -47.6222 -23.7871 -159.606
RightLeg  97.0555 -3.64423 137.096
RightFoot  39.4929 2.53248 -10.0468
RightToes  -1.16417e-010 0 -3.6325e-017
Spine  174.049 49.6131 -7.62414
Spine1  46.3165 21.1048 -23.7787
HEad  2.41621 -33.2374 -26.4753
LeftShoulder1  0.964573 -3.29845 -6.64869
LeftArm  -35.3854 -41.8315 -25.5476
LeftForeArm  15.5002 -10.7362 4.20317
LeftHand  0.00135588 7.84944 2.04118
RightShoulder  -0.277059 -4.53901 18.8527
RightArm  -10.4489 19.2339 55.3624
RightForeArm  160.144 69.5654 152.672
RightHand  -0.0970756 1.02252 -1.86474
LeftUpLeg  103 32.4233 -19.3713
LeftLeg  87.192 -0.176034 5.25936
LeftFoot  -33.0977 -0.458204 -3.4244
LeftToes  1.47335e-010 -1.29615e-010 3.08757e-011
234
root  -9.82888 22.0941 -0.727143 -159.392 -52.764 2.57047
RightUpLeg  -41.4239 82.3745 -166.495
RightLeg  84.6536 4.63043 42.2881
RightFoot  -27.6527 -2.98008 -27.8547
RightToes  -1.16417e-010 0 -3.6325e-017
Spine  174.959 51.227 -6.56028
Spine1  42.5347 20.0438 -23.347
HEad  9.13217 -27.275 -28.7846
LeftShoulder1  0.912617 -1.79481 -9.79996
LeftArm  -35.2755 -40.6936 -25.02
LeftForeArm  14.3364 -12.5461 2.89337
LeftHand  -0.00711179 6.23321 2.99409
RightShoulder  0.0684779 -3.19884 16.7065
RightArm  -10.4684 17.2669 57.1802
RightForeArm  164.976 67.6967 155.64
RightHand  -0.0897935 0.693857 -1.79641
LeftUpLeg  100.634 32.1583 -17.9803
LeftLeg  88.0739 -0.272081 6.27886
LeftFoot  -33.4155 -0.568149 -3.94643
LeftToes  1.47335e-010 -1.29615e-010 3.08757e-011
235
root  -9.86581 21.9866 -0.581348 -159.415 -53.4701 5.03238
RightUpLeg  -12.5084 85.0314 -134.384
RightLeg  84.9878 2.9871 40.5371
RightFoot  -29.3438 -3.28784 -19.105
RightToes  -1.16417e-010 0 -3.6325e-017
Spine  172.384 52.3495 -8.3401
Spine1  42.6888 21.6156 -23.2141
HEad  12.0132 -25.6445 -26.7714
LeftShoulder1  0.902055 -1.81703 -9.56676
LeftArm  -35.9657 -41.1325 -26.0727
LeftForeArm  13.5954 -13.1542 2.81222
LeftHand  0.0124096 7.25227 2.99194
RightShoulder  0.00464333 -3.46157 17.9058
RightArm  -10.8224 17.1993 56.4833
RightForeArm  167.22 66.3255 157.374
RightHand  -0.0922601 0.498382 -1.88443
LeftUpLeg  98.6299 32.2072 -17.5719
LeftLeg  88.6921 -0.354461 7.24533
LeftFoot  -33.6931 -0.634238 -4.23885
LeftToes  1.47335e-010 -1.29615e-010 3.08757e-011
236
root  -9.95247 21.9673 -0.398307 -159.234 -54.3376 4.24023
RightUpLeg  -37.1964 85.5096 -159.319
RightLeg  84.5474 3.18697 40.927
RightFoot  -28.2938 -2.72363 -22.0189
RightToes  -1.16417e-010 0 -3.6325e-017
Spine  173.275 53.0711 -8.48581
Spine1  42.8494 22.6939 -22.8401
HEad  13.3741 -19.8957 -24.8629
LeftShoulder1  1.01493 -1.81465 -11.9322
LeftArm  -34.663 -43.2797 -23.5381
LeftForeArm  11.0939 -11.5995 2.71852
LeftHand  0.00930097 7.23636 2.82794
RightShoulder  0.0330951 -3.34644 17.6712
RightArm  -10.9072 16.8961 56.6104
RightForeArm  169.727 65.2012 158.74
RightHand  -0.0773328 0.705043 -1.55426
LeftUpLeg  99.5635 32.1393 -17.1158
LeftLeg  89.1418 -0.419076 7.94405
LeftFoot  -33.7745 -0.687546 -4.49914
LeftToes  1.47335e-010 -1.29615e-010 3.08757e-011
237
root  -10.1279 22.3358 -0.208365 -162.603 -54.2394 7.92905
RightUpLeg  0.940633 53.3139 -119.372
RightLeg  88.36 5.81024 72.1962
RightFoot  -13.7226 -5.23396 -8.51391
RightToes  -1.16417e-010 0 -3.6325e-017
Spine  174.395 54.5353 -6.51346
Spine1  43.364 22.1859 -21.9514
HEad  13.3793 -13.1142 -23.1945
LeftShoulder1  0.864468 -0.912566 -12.5974
LeftArm  -34.4276 -42.8024 -25.3718
LeftForeArm  12.076 -12.2225 2.6293
LeftHand  0.00541914 7.12253 2.77983
RightShoulder  0.192407 -2.6457 16.8012
RightArm  -10.391 16.3536 57.0925
RightForeArm  172.08 64.3303 159.764
RightHand  -0.0888115 0.382109 -1.83575
LeftUpLeg  101.576 32.6205 -14.4937
LeftLeg  87.2776 -0.189682 7.53796
LeftFoot  -33.136 -0.584461 -4.05009
LeftToes  1.47335e-010 -1.29615e-010 3.08757e-011
